<?xml version="1.0" encoding="UTF-8"?>
<!DOCTYPE svg PUBLIC "-//W3C//DTD SVG 1.0//EN" "http://www.w3.org/TR/2001/REC-SVG-20010904/DTD/svg10.dtd">
<!-- Creator: CorelDRAW X6 -->
<svg xmlns="http://www.w3.org/2000/svg" xml:space="preserve" width="26px" height="23px" version="1.0" style="shape-rendering:geometricPrecision; text-rendering:geometricPrecision; image-rendering:optimizeQuality; fill-rule:evenodd; clip-rule:evenodd"
viewBox="0 0 138 125"
 xmlns:xlink="http://www.w3.org/1999/xlink">
 <defs>
  <style type="text/css">
   <![CDATA[
    .fil0 {fill:#BEBEBE}
   ]]>
  </style>
 </defs>
 <g id="Слой_x0020_1">
  <metadata id="CorelCorpID_0Corel-Layer"/>
  <path class="fil0" d="M38 0c-10,0 -19,4 -27,11 -15,15 -15,40 0,55l53 56c1,1 3,2 5,2 2,0 4,-1 5,-2 18,-19 36,-37 53,-56 15,-15 15,-40 0,-55 -15,-15 -39,-15 -53,0l-5 5 -5 -5c-7,-8 -17,-11 -27,-11l0 0z" display="inline"/>
 </g>
</svg>
